<mxfile host="65bd71144e">
    <diagram id="wYrq5WtaNjL95edvBnum" name="Page-1">
        <mxGraphModel dx="1404" dy="614" grid="1" gridSize="10" guides="1" tooltips="1" connect="1" arrows="1" fold="1" page="1" pageScale="1" pageWidth="850" pageHeight="1100" math="0" shadow="0">
            <root>
                <mxCell id="0"/>
                <mxCell id="1" parent="0"/>
                <mxCell id="9" style="edgeStyle=none;html=1;exitX=0.5;exitY=1;exitDx=0;exitDy=0;entryX=0.5;entryY=0;entryDx=0;entryDy=0;" edge="1" parent="1" source="2" target="4">
                    <mxGeometry relative="1" as="geometry"/>
                </mxCell>
                <mxCell id="10" style="edgeStyle=none;html=1;exitX=0.5;exitY=0;exitDx=0;exitDy=0;entryX=0.5;entryY=1;entryDx=0;entryDy=0;" edge="1" parent="1" source="2" target="3">
                    <mxGeometry relative="1" as="geometry"/>
                </mxCell>
                <mxCell id="2" value="Author" style="rounded=0;whiteSpace=wrap;html=1;" vertex="1" parent="1">
                    <mxGeometry x="40" y="180" width="120" height="60" as="geometry"/>
                </mxCell>
                <mxCell id="3" value="Age&lt;br&gt;" style="ellipse;whiteSpace=wrap;html=1;gradientColor=default;perimeterSpacing=0;fillColor=none;" vertex="1" parent="1">
                    <mxGeometry x="40" y="50" width="120" height="80" as="geometry"/>
                </mxCell>
                <mxCell id="4" value="Name" style="ellipse;whiteSpace=wrap;html=1;" vertex="1" parent="1">
                    <mxGeometry x="40" y="270" width="120" height="80" as="geometry"/>
                </mxCell>
                <mxCell id="5" value="Email" style="ellipse;whiteSpace=wrap;html=1;" vertex="1" parent="1">
                    <mxGeometry x="220" y="320" width="120" height="80" as="geometry"/>
                </mxCell>
                <mxCell id="16" style="edgeStyle=none;html=1;exitX=0;exitY=0.5;exitDx=0;exitDy=0;entryX=1;entryY=0.5;entryDx=0;entryDy=0;shape=link;" edge="1" parent="1" source="8" target="15">
                    <mxGeometry relative="1" as="geometry"/>
                </mxCell>
                <mxCell id="8" value="Book" style="rounded=0;whiteSpace=wrap;html=1;gradientColor=default;fillColor=none;" vertex="1" parent="1">
                    <mxGeometry x="400" y="180" width="120" height="60" as="geometry"/>
                </mxCell>
                <mxCell id="11" value="Printer" style="ellipse;whiteSpace=wrap;html=1;fillColor=none;gradientColor=default;" vertex="1" parent="1">
                    <mxGeometry x="400" y="50" width="120" height="80" as="geometry"/>
                </mxCell>
                <mxCell id="12" value="City" style="ellipse;whiteSpace=wrap;html=1;fillColor=none;gradientColor=default;" vertex="1" parent="1">
                    <mxGeometry x="630" y="170" width="120" height="80" as="geometry"/>
                </mxCell>
                <mxCell id="13" value="State" style="ellipse;whiteSpace=wrap;html=1;fillColor=none;gradientColor=default;" vertex="1" parent="1">
                    <mxGeometry x="630" y="260" width="120" height="80" as="geometry"/>
                </mxCell>
                <mxCell id="14" value="Year Published" style="ellipse;whiteSpace=wrap;html=1;fillColor=none;gradientColor=default;" vertex="1" parent="1">
                    <mxGeometry x="630" y="50" width="120" height="80" as="geometry"/>
                </mxCell>
                <mxCell id="17" style="edgeStyle=none;html=1;exitX=0;exitY=0.5;exitDx=0;exitDy=0;entryX=1;entryY=0.5;entryDx=0;entryDy=0;shape=link;" edge="1" parent="1" source="15" target="2">
                    <mxGeometry relative="1" as="geometry"/>
                </mxCell>
                <mxCell id="15" value="Written By" style="rhombus;whiteSpace=wrap;html=1;fillColor=none;gradientColor=default;" vertex="1" parent="1">
                    <mxGeometry x="240" y="170" width="80" height="80" as="geometry"/>
                </mxCell>
            </root>
        </mxGraphModel>
    </diagram>
</mxfile>